:FULLY-SPECIFIED
:DEGREES
184
root -2.53986 15.6577 -37.0958 9.20122 21.2084 -4.6538
lfemur -40.171 31.9152 -15.9034
ltibia 82.0601
lfoot -22.5005 26.5208
ltoes 8.85916
rfemur -35.2339 -20.0266 17.4907
rtibia 61.2144
rfoot -25.109 -12.9779
rtoes -27.2385
lowerback 14.0557 2.80772 5.4387
upperback -3.76055 5.03142 2.03861
thorax -11.7783 2.07833 -2.02143
lowerneck -4.14856 10.5827 4.62037
upperneck 4.46174 14.4138 -8.41682
head 3.2581 7.03349 -2.88329
lclavicle 2.28602e-15 -1.27222e-14
lhumerus -9.24572 -41.6904 77.3475
lradius 134.757
lwrist 21.2946
lhand -14.3878 55.8947
lfingers 7.12502
lthumb 11.7552 85.5448
rclavicle 2.28602e-15 -1.27222e-14
rhumerus -44.4292 54.5852 -95.0926
rradius 91.2006
rwrist -27.1943
rhand 8.79334 -27.1428
rfingers 7.12502
rthumb 33.981 -53.9307
185
root -2.49785 15.6588 -37.0623 9.23175 22.5404 -4.83019
lfemur -39.3755 32.5335 -15.7418
ltibia 81.1539
lfoot -23.4349 27.4444
ltoes 11.0193
rfemur -34.5992 -20.516 17.4948
rtibia 60.8476
rfoot -24.8995 -13.8269
rtoes -28.1635
lowerback 13.7806 2.59474 5.48919
upperback -3.81228 4.76474 2.25757
thorax -11.7082 1.96252 -1.73538
lowerneck -4.33693 10.6127 4.65853
upperneck 4.44366 14.4467 -8.42491
head 3.29365 7.04606 -2.88
lclavicle 6.16232e-14 -1.66979e-14
lhumerus -11.7431 -35.5183 76.0441
lradius 131.611
lwrist 28.3702
lhand -14.5923 60.0796
lfingers 7.12502
lthumb 11.558 89.7409
rclavicle 6.16232e-14 -1.66979e-14
rhumerus -46.2218 52.4832 -96.1479
rradius 94.7306
rwrist -31.9656
rhand 14.2851 -25.6435
rfingers 7.12502
rthumb 39.1783 -51.1123
186
root -2.45898 15.6581 -37.0349 9.19392 24.219 -5.06091
lfemur -38.7819 32.7736 -15.6263
ltibia 80.0081
lfoot -24.7762 27.9166
ltoes 13.8614
rfemur -33.8696 -20.9225 17.5401
rtibia 60.4769
rfoot -24.6001 -14.9042
rtoes -28.8534
lowerback 13.5466 2.38941 5.55342
upperback -3.82405 4.51957 2.54964
thorax -11.6197 1.86018 -1.38545
lowerneck -4.70933 10.4673 4.87876
upperneck 4.57297 14.2552 -8.65246
head 3.43732 6.93713 -2.98481
lclavicle 5.82439e-14 -7.15625e-15
lhumerus -13.48 -29.9063 74.2419
lradius 126.713
lwrist 33.037
lhand -15.4033 59.5166
lfingers 7.12502
lthumb 10.7757 89.2202
rclavicle 5.82439e-14 -7.15625e-15
rhumerus -47.5783 49.4881 -96.4692
rradius 97.754
rwrist -36.2687
rhand 22.7747 -23.7034
rfingers 7.12502
rthumb 47.1106 -46.3208
187
root -2.41841 15.6585 -36.9981 9.13174 26.1539 -5.0514
lfemur -38.1162 32.9203 -15.8014
ltibia 78.5145
lfoot -25.3454 28.6268
ltoes 14.4435
rfemur -32.8591 -21.2133 17.267
rtibia 60.135
rfoot -24.1254 -16.4295
rtoes -29.8921
lowerback 13.2892 2.08644 5.31541
upperback -3.79163 4.08831 2.88061
thorax -11.4966 1.69452 -0.783866
lowerneck -4.89761 10.3863 4.8636
upperneck 4.73894 14.1845 -9.13983
head 3.2116 6.86236 -2.81401
lclavicle 5.92378e-14 1.82882e-14
lhumerus -14.9084 -25.0992 72.1218
lradius 120.167
lwrist 33.3598
lhand -16.9905 57.4829
lfingers 7.12502
lthumb 9.24449 87.2602
rclavicle 5.92378e-14 1.82882e-14
rhumerus -49.1613 46.4184 -96.893
rradius 100.281
rwrist -40.5066
rhand 32.7689 -21.4636
rfingers 7.12502
rthumb 56.1776 -38.7147
188
root -2.37946 15.6569 -36.9635 9.06327 28.2673 -5.0612
lfemur -37.6656 32.9771 -16.0898
ltibia 76.798
lfoot -25.537 29.0533
ltoes 14.2182
rfemur -31.8451 -21.2063 17.0246
rtibia 59.8607
rfoot -23.3681 -18.331
rtoes -30.9437
lowerback 13.0382 1.90185 5.16709
upperback -3.79599 3.82583 3.12726
thorax -11.3922 1.59684 -0.364558
lowerneck -5.01537 10.1449 4.89375
upperneck 4.70809 13.8665 -9.30731
head 3.21386 6.69843 -2.88375
lclavicle -5.30755e-14 -2.14687e-14
lhumerus -15.4964 -21.8831 69.9403
lradius 112.271
lwrist 29.0679
lhand -18.6743 53.5189
lfingers 7.12502
lthumb 7.61952 83.3616
rclavicle -5.30755e-14 -2.14687e-14
rhumerus -50.5725 42.3117 -96.781
rradius 102.303
rwrist -44.8028
rhand 43.3408 -19.1006
rfingers 7.12502
rthumb 65.0999 -26.1103
189
root -2.34068 15.6527 -36.9223 8.94754 30.6179 -4.96056
lfemur -37.1378 32.8853 -16.4789
ltibia 74.8249
lfoot -25.3872 29.0851
ltoes 14.0103
rfemur -30.6602 -20.9805 16.644
rtibia 59.7365
rfoot -22.6447 -20.294
rtoes -31.2891
lowerback 12.8211 1.70804 5.03531
upperback -3.7478 3.54095 3.27206
thorax -11.2368 1.48346 -0.0631469
lowerneck -5.34373 9.80763 4.6472
upperneck 4.7061 13.4055 -9.11262
head 3.20407 6.46363 -2.80647
lclavicle 7.55382e-15 -3.97569e-14
lhumerus -15.0798 -19.7258 67.8904
lradius 102.886
lwrist 20.4117
lhand -21.4749 51.3553
lfingers 7.12502
lthumb 4.91576 81.2783
rclavicle 7.55382e-15 -3.97569e-14
rhumerus -51.9157 37.6766 -96.4851
rradius 103.849
rwrist -49.0781
rhand 54.2772 -18.0799
rfingers 7.12502
rthumb 72.4632 -3.75321
190
root -2.3039 15.6477 -36.8762 8.82484 33.1573 -4.67383
lfemur -36.5806 32.7371 -17.0879
ltibia 72.6411
lfoot -24.5724 29.0419
ltoes 12.7881
rfemur -29.3858 -20.4505 16.0835
rtibia 59.8532
rfoot -21.6225 -22.4658
rtoes -31.131
lowerback 12.479 1.56394 4.62019
upperback -3.59806 3.25896 3.4219
thorax -10.904 1.39488 0.40308
lowerneck -5.5608 9.30032 4.45173
upperneck 4.40229 12.6902 -8.74058
head 3.39202 6.13594 -3.0157
lclavicle -4.37326e-14 -3.73715e-14
lhumerus -13.3945 -18.1666 66.3468
lradius 91.993
lwrist 8.96605
lhand -25.8397 53.6878
lfingers 7.12502
lthumb 0.700574 83.6664
rclavicle -4.37326e-14 -3.73715e-14
rhumerus -52.9884 32.9963 -95.595
rradius 104.991
rwrist -53.0727
rhand 60.5749 -16.2696
rfingers 7.12502
rthumb 74.716 18.1964
191
root -2.26573 15.6452 -36.8315 8.74241 35.7869 -4.3064
lfemur -36.0645 32.5777 -17.8645
ltibia 70.3026
lfoot -23.6392 28.7584
ltoes 10.4221
rfemur -28.2618 -19.5011 15.47
rtibia 60.2968
rfoot -20.2159 -24.4128
rtoes -30.4873
lowerback 12.2203 1.45053 4.21001
upperback -3.50711 3.02173 3.47874
thorax -10.6758 1.31779 0.751123
lowerneck -5.69658 8.7232 4.0202
upperneck 4.35396 11.9068 -8.3181
head 3.27275 5.75012 -2.84607
lclavicle 8.96519e-14 -1.82882e-14
lhumerus -10.2933 -16.7778 65.0945
lradius 79.2423
lwrist -4.41873
lhand -28.6631 55.0018
lfingers 7.12502
lthumb -2.02637 84.9719
rclavicle 8.96519e-14 -1.82882e-14
rhumerus -54.3832 27.9936 -94.6989
rradius 105.833
rwrist -56.0617
rhand 63.5446 -15.7097
rfingers 7.12502
rthumb 74.9794 29.6988
192
root -2.22536 15.6327 -36.792 8.80757 38.5569 -3.73597
lfemur -35.6562 32.2781 -18.9509
ltibia 67.9293
lfoot -23.2838 29.0762
ltoes 2.75788
rfemur -27.2572 -18.3044 14.682
rtibia 61.1571
rfoot -19.1772 -25.9236
rtoes -29.4835
lowerback 11.891 1.28347 3.72462
upperback -3.39804 2.69232 3.49184
thorax -10.3835 1.19862 1.11273
lowerneck -5.84127 8.16901 3.63414
upperneck 4.50395 11.1742 -7.97853
head 3.24545 5.38385 -2.70453
lclavicle -1.82882e-14 5.48646e-14
lhumerus -5.75257 -14.7062 64.3072
lradius 64.9877
lwrist -18.2574
lhand -27.189 51.8947
lfingers 7.12502
lthumb -0.602618 81.8736
rclavicle -1.82882e-14 5.48646e-14
rhumerus -55.7087 23.4162 -93.6815
rradius 106.078
rwrist -57.7013
rhand 63.8873 -15.2576
rfingers 7.12502
rthumb 74.9731 31.4276
193
root -2.19343 15.6113 -36.743 8.9177 41.485 -2.91482
lfemur -35.1102 32.1326 -20.2089
ltibia 65.7566
lfoot -25.1236 30.2083
ltoes 0.440402
rfemur -26.1829 -16.8765 13.821
rtibia 62.3801
rfoot -17.2424 -27.6379
rtoes -29.445
lowerback 11.7507 1.06474 2.8734
upperback -3.30833 2.25403 3.52296
thorax -10.2331 1.04639 1.71637
lowerneck -6.0314 7.68841 3.303
upperneck 4.92925 10.561 -7.69738
head 3.34398 5.06969 -2.57947
lclavicle 3.67752e-14 5.725e-14
lhumerus -0.453067 -10.6054 64.5262
lradius 50.1791
lwrist -32.9518
lhand -23.4027 45.9732
lfingers 7.12502
lthumb 3.05418 75.931
rclavicle 3.67752e-14 5.725e-14
rhumerus -57.1107 19.1572 -92.6045
rradius 105.828
rwrist -59.4062
rhand 60.669 -13.5497
rfingers 7.12502
rthumb 74.733 21.2551
194
root -2.15411 15.605 -36.6993 9.21346 44.597 -1.92478
lfemur -34.4681 31.5645 -21.4864
ltibia 63.9887
lfoot -28.2499 30.7243
ltoes 6.88945
rfemur -25.4656 -15.5973 12.9586
rtibia 64.1016
rfoot -15.1102 -28.7213
rtoes -28.9732
lowerback 11.6886 0.714214 2.05016
upperback -3.19463 1.64665 3.53447
thorax -10.0837 0.807524 2.31624
lowerneck -6.30869 7.30395 3.01394
upperneck 5.30419 10.0784 -7.52011
head 3.46469 4.81704 -2.48659
lclavicle -8.18993e-14 -5.24792e-14
lhumerus 4.068 -7.06413 64.7394
lradius 38.9771
lwrist -42.9147
lhand -17.1211 52.0628
lfingers 7.12502
lthumb 9.11849 81.8457
rclavicle -8.18993e-14 -5.24792e-14
rhumerus -58.2284 15.3676 -91.4069
rradius 105.079
rwrist -61.6069
rhand 54.0906 -12.0965
rfingers 7.12502
rthumb 72.3673 1.72485
195
root -2.10681 15.6336 -36.66 9.69992 47.7125 -0.781207
lfemur -33.2456 30.3058 -22.0623
ltibia 62.7713
lfoot -28.8162 29.2115
ltoes 6.97917
rfemur -24.9554 -14.3851 12.138
rtibia 66.2937
rfoot -12.8308 -29.0091
rtoes -28.1905
lowerback 11.609 0.375567 1.20305
upperback -3.03967 1.03927 3.43732
thorax -9.85909 0.562109 2.81065
lowerneck -6.55935 6.87255 3.02199
upperneck 5.46984 9.49882 -7.43973
head 3.53067 4.52398 -2.48925
lclavicle 3.3197e-14 3.18055e-15
lhumerus 7.94381 -3.08461 65.1714
lradius 29.3223
lwrist -53.2903
lhand -17.0211 43.2929
lfingers 7.12502
lthumb 9.21499 73.0716
rclavicle 3.3197e-14 3.18055e-15
rhumerus -59.1292 11.5654 -90.1611
rradius 104.064
rwrist -63.9588
rhand 46.9135 -12.5864
rfingers 7.12502
rthumb 67.8133 -14.2493
196
root -2.06413 15.6239 -36.6331 10.3721 51.1022 0.491025
lfemur -32.0622 27.7547 -22.297
ltibia 61.9815
lfoot -28.5099 29.1217
ltoes 6.25103
rfemur -24.9897 -13.4338 11.4219
rtibia 69.2112
rfoot -10.3515 -28.5545
rtoes -26.5157
lowerback 11.6042 -0.382128 0.329259
upperback -2.74491 -0.110013 3.5635
thorax -9.48055 0.0591752 3.66428
lowerneck -7.00215 6.75139 2.39488
upperneck 5.16011 9.35507 -7.24059
head 3.44595 4.44376 -2.30759
lclavicle -4.77083e-14 2.38542e-14
lhumerus 10.1931 0.235501 65.5563
lradius 23.7105
lwrist -58.5892
lhand -14.7697 39.2909
lfingers 7.12502
lthumb 11.3869 68.9618
rclavicle -4.77083e-14 2.38542e-14
rhumerus -59.4071 9.3399 -89.0424
rradius 102.566
rwrist -66.0669
rhand 38.8031 -12.3836
rfingers 7.12502
rthumb 61.3958 -24.61
197
root -2.01314 15.5954 -36.6126 11.5558 54.5909 2.01266
lfemur -31.4648 24.4305 -22.4773
ltibia 61.3279
lfoot -26.1009 30.1684
ltoes -0.291414
rfemur -25.7393 -12.8499 10.7011
rtibia 72.7166
rfoot -7.66506 -26.9554
rtoes -22.7081
lowerback 11.5343 -1.13232 -0.348031
upperback -2.62842 -1.23356 3.47382
thorax -9.22881 -0.454551 4.16341
lowerneck -7.04714 6.51205 2.31479
upperneck 4.53628 8.99213 -7.15772
head 3.20824 4.27747 -2.29115
lclavicle -1.43125e-14 1.35174e-14
lhumerus 11.9923 4.04637 66.7061
lradius 20.1113
lwrist -63.6777
lhand -14.7272 39.1925
lfingers 7.12502
lthumb 11.4278 68.8611
rclavicle -1.43125e-14 1.35174e-14
rhumerus -59.8143 7.00709 -88.2702
rradius 100.89
rwrist -67.3699
rhand 31.1792 -13.654
rfingers 7.12502
rthumb 54.7638 -31.9621
